<?xml version="1.0" encoding="utf-8"?>
<!-- Generator: Adobe Illustrator 25.3.1, SVG Export Plug-In . SVG Version: 6.00 Build 0)  -->
<svg version="1.1" id="Layer_1" xmlns="http://www.w3.org/2000/svg" xmlns:xlink="http://www.w3.org/1999/xlink" x="0px" y="0px"
	 viewBox="0 0 40.7 45.2" style="enable-background:new 0 0 40.7 45.2;" xml:space="preserve">
<g>
	<path d="M34.6,6c-0.3-0.3-0.6-0.4-1-0.4c-0.7,0-1.4,0.3-1.9,0.8c-0.3,0.3-0.7,0.3-0.9,0c-0.5-0.5-1.2-0.8-1.9-0.8
		c-0.4,0-0.7,0.1-1,0.4c-0.7,0.7-0.6,2.4,0.2,3.3l3.2,3.3l3.4-3.3C35.3,8.3,35.3,6.9,34.6,6z"/>
	<path d="M11.1,20.7c0-0.4-0.2-0.7-0.5-1c-0.7-0.6-1.7-0.6-2.4,0c-0.2,0.2-0.6,0.2-0.9,0c-0.7-0.6-1.7-0.6-2.4,0
		c-0.5,0.5-0.6,1.3-0.1,1.8c0,0.1,0.1,0.1,0.1,0.1l2.8,2.6l2.8-2.6C10.9,21.5,11.1,21.1,11.1,20.7z"/>
	<polygon points="28.2,25.8 13.5,25.8 13,27.1 28.7,27.1 	"/>
	<polygon points="18,18 16.2,18 13.9,24.5 15.8,24.5 	"/>
	<polygon points="24.7,15.4 17.1,15.4 16.6,16.7 25.1,16.7 	"/>
	<polygon points="25.9,24.5 27.8,24.5 25.6,18 23.7,18 	"/>
	<polygon points="21,5 20.7,5 20.3,6.3 21.4,6.3 	"/>
	<path d="M20.2,10c0.1-0.4,0.4-0.6,0.8-0.5c0.2,0.1,0.4,0.2,0.5,0.5l1,4.1h1.4l-2-6.5h-1.9l-2.1,6.5h1.4L20.2,10z"/>
	<path d="M12.6,28.4L8.8,39.5h4.4c1.3-3.8,3.5-8.5,7.6-8.5s6.3,4.7,7.6,8.5h4.5l-3.8-11.1H12.6z M15,31h-1.3v-1.3H15V31z M17.6,31
		h-1.3v-1.3h1.3V31z M25.4,31h-1.3v-1.3h1.3V31z M28,31h-1.3v-1.3H28V31z"/>
</g>
</svg>
